<svg width="16" height="16" viewBox="0 0 16 16" xmlns="http://www.w3.org/2000/svg">
    <path fill-rule="evenodd" clip-rule="evenodd"
        d="M2.87678 1.12322C2.37915 0.625592 1.62085 0.625592 1.12322 1.12322C0.625592 1.62085 0.625592 2.37915 1.12322 2.87678L5.89645 7.65L1.12322 12.4232C0.625592 12.9209 0.625592 13.6791 1.12322 14.1768C1.62085 14.6744 2.37915 14.6744 2.87678 14.1768L7.65 9.40355L12.4232 14.1768C12.9209 14.6744 13.6791 14.6744 14.1768 14.1768C14.6744 13.6791 14.6744 12.9209 14.1768 12.4232L9.40355 7.65L14.1768 2.87678C14.6744 2.37915 14.6744 1.62085 14.1768 1.12322C13.6791 0.625592 12.9209 0.625592 12.4232 1.12322L7.65 5.89645L2.87678 1.12322Z" />
</svg>