<svg width="18" height="18" viewBox="0 0 18 18" fill="none" xmlns="http://www.w3.org/2000/svg">
    <path
        d="M14.5 5.33341V2.58341C14.5 2.3403 14.4034 2.10714 14.2315 1.93523C14.0596 1.76333 13.8264 1.66675 13.5833 1.66675H1.66667C1.42355 1.66675 1.19039 1.76333 1.01849 1.93523C0.846577 2.10714 0.75 2.3403 0.75 2.58341V13.5834C0.75 13.8265 0.846577 14.0597 1.01849 14.2316C1.19039 14.4035 1.42355 14.5001 1.66667 14.5001H9.91667M12.6667 6.25008H14.5M10.8333 5.33341H16.3333C16.8396 5.33341 17.25 5.74382 17.25 6.25008V15.4167C17.25 15.923 16.8396 16.3334 16.3333 16.3334H10.8333C10.3271 16.3334 9.91667 15.923 9.91667 15.4167V6.25008C9.91667 5.74382 10.3271 5.33341 10.8333 5.33341Z"
        stroke="#A0AEC0" stroke-width="1.5" stroke-linecap="round" stroke-linejoin="round" />
</svg>