<svg width="17" height="17" viewBox="0 0 17 17" fill="none" xmlns="http://www.w3.org/2000/svg">
    <path
        d="M3.83301 4.83342H2.99967C2.55765 4.83342 2.13372 5.00902 1.82116 5.32158C1.5086 5.63414 1.33301 6.05806 1.33301 6.50009V14.0001C1.33301 14.4421 1.5086 14.866 1.82116 15.1786C2.13372 15.4912 2.55765 15.6668 2.99967 15.6668H10.4997C10.9417 15.6668 11.3656 15.4912 11.6782 15.1786C11.9907 14.866 12.1663 14.4421 12.1663 14.0001V13.1668M11.333 3.16676L13.833 5.66676M14.9872 4.48759C15.3154 4.15938 15.4998 3.71424 15.4998 3.25009C15.4998 2.78594 15.3154 2.34079 14.9872 2.01259C14.659 1.68438 14.2138 1.5 13.7497 1.5C13.2855 1.5 12.8404 1.68438 12.5122 2.01259L5.49967 9.00009V11.5001H7.99967L14.9872 4.48759Z"
        stroke="#1B85F3" stroke-width="1.5" stroke-linecap="round" stroke-linejoin="round" />
</svg>