<svg width="14" height="14" viewBox="0 0 14 14" fill="none" xmlns="http://www.w3.org/2000/svg">
    <rect width="14" height="14" rx="7" fill="#FC5A5A" />
    <mask id="path-2-inside-1_549_127018" fill="white">
        <path
            d="M8.90695 5.09305C8.84734 5.03347 8.76652 5 8.68224 5C8.59797 5 8.51714 5.03347 8.45754 5.09305L7 6.5506L5.54246 5.09305C5.48286 5.03347 5.40203 5 5.31776 5C5.23348 5 5.15266 5.03347 5.09305 5.09305C5.03347 5.15266 5 5.23348 5 5.31776C5 5.40203 5.03347 5.48286 5.09305 5.54246L6.5506 7L5.09305 8.45754C5.03347 8.51714 5 8.59797 5 8.68224C5 8.76652 5.03347 8.84734 5.09305 8.90695C5.15266 8.96653 5.23348 9 5.31776 9C5.40203 9 5.48286 8.96653 5.54246 8.90695L7 7.4494L8.45754 8.90695C8.51714 8.96653 8.59797 9 8.68224 9C8.76652 9 8.84734 8.96653 8.90695 8.90695C8.96653 8.84734 9 8.76652 9 8.68224C9 8.59797 8.96653 8.51714 8.90695 8.45754L7.4494 7L8.90695 5.54246C8.96653 5.48286 9 5.40203 9 5.31776C9 5.23348 8.96653 5.15266 8.90695 5.09305Z" />
    </mask>
    <path
        d="M8.90695 5.09305C8.84734 5.03347 8.76652 5 8.68224 5C8.59797 5 8.51714 5.03347 8.45754 5.09305L7 6.5506L5.54246 5.09305C5.48286 5.03347 5.40203 5 5.31776 5C5.23348 5 5.15266 5.03347 5.09305 5.09305C5.03347 5.15266 5 5.23348 5 5.31776C5 5.40203 5.03347 5.48286 5.09305 5.54246L6.5506 7L5.09305 8.45754C5.03347 8.51714 5 8.59797 5 8.68224C5 8.76652 5.03347 8.84734 5.09305 8.90695C5.15266 8.96653 5.23348 9 5.31776 9C5.40203 9 5.48286 8.96653 5.54246 8.90695L7 7.4494L8.45754 8.90695C8.51714 8.96653 8.59797 9 8.68224 9C8.76652 9 8.84734 8.96653 8.90695 8.90695C8.96653 8.84734 9 8.76652 9 8.68224C9 8.59797 8.96653 8.51714 8.90695 8.45754L7.4494 7L8.90695 5.54246C8.96653 5.48286 9 5.40203 9 5.31776C9 5.23348 8.96653 5.15266 8.90695 5.09305Z"
        fill="white" />
    <path
        d="M8.45754 5.09305L-6.62513 -9.99417L-6.6274 -9.99189L8.45754 5.09305ZM7 6.5506L-8.08495 21.6355L7 36.7205L22.0849 21.6355L7 6.5506ZM5.54246 5.09305L20.6274 -9.99189L20.6251 -9.99417L5.54246 5.09305ZM5.09305 5.09305L-9.98961 -9.99417L-9.99417 -9.98961L5.09305 5.09305ZM5.09305 5.54246L-9.99417 20.6251L-9.99189 20.6274L5.09305 5.54246ZM6.5506 7L21.6355 22.0849L36.7205 7L21.6355 -8.08494L6.5506 7ZM5.09305 8.45754L-9.99189 -6.6274L-9.99417 -6.62512L5.09305 8.45754ZM5 8.68224H-16.3333H5ZM5.09305 8.90695L-9.99417 23.9896L-9.98961 23.9942L5.09305 8.90695ZM5.54246 8.90695L20.6251 23.9942L20.6274 23.9919L5.54246 8.90695ZM7 7.4494L22.0849 -7.63554L7 -22.7205L-8.08495 -7.63554L7 7.4494ZM8.45754 8.90695L-6.6274 23.9919L-6.62513 23.9942L8.45754 8.90695ZM8.90695 8.90695L23.9896 23.9942L23.9942 23.9896L8.90695 8.90695ZM8.90695 8.45754L23.9942 -6.62512L23.9919 -6.6274L8.90695 8.45754ZM7.4494 7L-7.63554 -8.08494L-22.7205 7L-7.63554 22.0849L7.4494 7ZM8.90695 5.54246L23.9919 20.6274L23.9942 20.6251L8.90695 5.54246ZM23.9896 -9.99417C19.9294 -14.0531 14.4233 -16.3333 8.68224 -16.3333V26.3333C3.10969 26.3333 -2.23473 24.1201 -6.17572 20.1803L23.9896 -9.99417ZM8.68224 -16.3333C2.9411 -16.3333 -2.56496 -14.0531 -6.62513 -9.99417L23.5402 20.1803C19.5992 24.1201 14.2548 26.3333 8.68224 26.3333V-16.3333ZM-6.6274 -9.99189L-8.08495 -8.53435L22.0849 21.6355L23.5425 20.178L-6.6274 -9.99189ZM22.0849 -8.53435L20.6274 -9.99189L-9.54249 20.178L-8.08495 21.6355L22.0849 -8.53435ZM20.6251 -9.99417C16.5649 -14.0531 11.0589 -16.3333 5.31776 -16.3333V26.3333C-0.254807 26.3333 -5.59922 24.1201 -9.54021 20.1803L20.6251 -9.99417ZM5.31776 -16.3333C-0.423368 -16.3333 -5.92943 -14.0531 -9.98961 -9.99417L20.1757 20.1803C16.2347 24.1201 10.8903 26.3333 5.31776 26.3333V-16.3333ZM-9.99417 -9.98961C-14.0531 -5.92943 -16.3333 -0.423367 -16.3333 5.31776H26.3333C26.3333 10.8903 24.1201 16.2347 20.1803 20.1757L-9.99417 -9.98961ZM-16.3333 5.31776C-16.3333 11.0589 -14.0531 16.5649 -9.99417 20.6251L20.1803 -9.54021C24.1201 -5.59922 26.3333 -0.254805 26.3333 5.31776H-16.3333ZM-9.99189 20.6274L-8.53435 22.0849L21.6355 -8.08494L20.178 -9.54249L-9.99189 20.6274ZM-8.53435 -8.08494L-9.99189 -6.6274L20.178 23.5425L21.6355 22.0849L-8.53435 -8.08494ZM-9.99417 -6.62512C-14.0531 -2.56496 -16.3333 2.9411 -16.3333 8.68224H26.3333C26.3333 14.2548 24.1201 19.5992 20.1803 23.5402L-9.99417 -6.62512ZM-16.3333 8.68224C-16.3333 14.4233 -14.0531 19.9294 -9.99417 23.9896L20.1803 -6.17572C24.1201 -2.23472 26.3333 3.10969 26.3333 8.68224H-16.3333ZM-9.98961 23.9942C-5.92939 28.0532 -0.423316 30.3333 5.31776 30.3333V-12.3333C10.8903 -12.3333 16.2347 -10.1201 20.1757 -6.18028L-9.98961 23.9942ZM5.31776 30.3333C11.0588 30.3333 16.5649 28.0532 20.6251 23.9942L-9.54021 -6.18028C-5.59918 -10.1201 -0.254755 -12.3333 5.31776 -12.3333V30.3333ZM20.6274 23.9919L22.0849 22.5343L-8.08495 -7.63554L-9.54249 -6.178L20.6274 23.9919ZM-8.08495 22.5343L-6.6274 23.9919L23.5425 -6.178L22.0849 -7.63554L-8.08495 22.5343ZM-6.62513 23.9942C-2.56492 28.0531 2.94115 30.3333 8.68224 30.3333V-12.3333C14.2548 -12.3333 19.5992 -10.1201 23.5402 -6.18028L-6.62513 23.9942ZM8.68224 30.3333C14.4233 30.3333 19.9294 28.0532 23.9896 23.9942L-6.17572 -6.18028C-2.23469 -10.1201 3.10974 -12.3333 8.68224 -12.3333V30.3333ZM23.9942 23.9896C28.0532 19.9294 30.3333 14.4233 30.3333 8.68224H-12.3333C-12.3333 3.10975 -10.1201 -2.23469 -6.18028 -6.17572L23.9942 23.9896ZM30.3333 8.68224C30.3333 2.94115 28.0531 -2.56492 23.9942 -6.62512L-6.18028 23.5402C-10.1201 19.5992 -12.3333 14.2548 -12.3333 8.68224H30.3333ZM23.9919 -6.6274L22.5343 -8.08494L-7.63554 22.0849L-6.178 23.5425L23.9919 -6.6274ZM22.5343 22.0849L23.9919 20.6274L-6.178 -9.54249L-7.63554 -8.08494L22.5343 22.0849ZM23.9942 20.6251C28.0532 16.5649 30.3333 11.0588 30.3333 5.31776H-12.3333C-12.3333 -0.254753 -10.1201 -5.59918 -6.18028 -9.54021L23.9942 20.6251ZM30.3333 5.31776C30.3333 -0.423315 28.0532 -5.92939 23.9942 -9.98961L-6.18028 20.1757C-10.1201 16.2347 -12.3333 10.8903 -12.3333 5.31776H30.3333Z"
        fill="white" mask="url(#path-2-inside-1_549_127018)" />
</svg>