<svg width="28" height="28" viewBox="0 0 28 28" fill="none" xmlns="http://www.w3.org/2000/svg">
<path fill-rule="evenodd" clip-rule="evenodd" d="M27.44 14.3182C27.44 13.3255 27.3509 12.371 27.1854 11.4546H14V16.87H21.5345C21.21 18.62 20.2236 20.1028 18.7409 21.0955V24.6082H23.2654C25.9127 22.1709 27.44 18.5819 27.44 14.3182Z" fill="#4285F4"/>
<path fill-rule="evenodd" clip-rule="evenodd" d="M13.9997 27.9999C17.7797 27.9999 20.9487 26.7463 23.2651 24.6081L18.7406 21.0954C17.4869 21.9354 15.8833 22.4317 13.9997 22.4317C10.3533 22.4317 7.26694 19.969 6.16604 16.6599H1.48877V20.2872C3.7924 24.8626 8.52694 27.9999 13.9997 27.9999Z" fill="#34A853"/>
<path fill-rule="evenodd" clip-rule="evenodd" d="M6.16636 16.66C5.88636 15.82 5.72726 14.9228 5.72726 14C5.72726 13.0773 5.88636 12.18 6.16636 11.34V7.71277H1.48909C0.540908 9.60277 0 11.7409 0 14C0 16.2591 0.540908 18.3973 1.48909 20.2873L6.16636 16.66Z" fill="#FBBC05"/>
<path fill-rule="evenodd" clip-rule="evenodd" d="M13.9997 5.56817C16.0551 5.56817 17.9006 6.27454 19.3515 7.66181L23.3669 3.64636C20.9424 1.38727 17.7733 0 13.9997 0C8.52694 0 3.7924 3.13727 1.48877 7.71272L6.16604 11.34C7.26694 8.0309 10.3533 5.56817 13.9997 5.56817Z" fill="#EA4335"/>
</svg>
