<svg width="18" height="18" viewBox="0 0 18 18" fill="none" xmlns="http://www.w3.org/2000/svg">
    <path
        d="M10.8333 5.33341V3.50008C10.8333 3.01385 10.6402 2.54754 10.2964 2.20372C9.95255 1.8599 9.48623 1.66675 9 1.66675H2.58333C2.0971 1.66675 1.63079 1.8599 1.28697 2.20372C0.943154 2.54754 0.75 3.01385 0.75 3.50008V14.5001C0.75 14.9863 0.943154 15.4526 1.28697 15.7964C1.63079 16.1403 2.0971 16.3334 2.58333 16.3334H9C9.48623 16.3334 9.95255 16.1403 10.2964 15.7964C10.6402 15.4526 10.8333 14.9863 10.8333 14.5001V12.6667M4.41667 9.00008H17.25M17.25 9.00008L14.5 6.25008M17.25 9.00008L14.5 11.7501"
        stroke="#B3BECD" stroke-width="1.5" stroke-linecap="round" stroke-linejoin="round" />
</svg>