<svg width="18" height="18" viewBox="0 0 18 18" fill="none" xmlns="http://www.w3.org/2000/svg">
    <path
        d="M12.6668 11.7501C10.641 12.972 7.3575 12.972 5.3335 11.7501M15.4168 5.98404L10.5283 2.1817C10.0992 1.84795 9.57121 1.66675 9.02767 1.66675C8.48413 1.66675 7.9561 1.84795 7.52709 2.1817L2.63759 5.98404C2.34374 6.21255 2.10601 6.50519 1.94253 6.83961C1.77905 7.17403 1.69416 7.54138 1.69434 7.91362V14.5136C1.69434 14.9998 1.88749 15.4662 2.23131 15.81C2.57512 16.1538 3.04144 16.347 3.52767 16.347H14.5277C15.0139 16.347 15.4802 16.1538 15.824 15.81C16.1678 15.4662 16.361 14.9998 16.361 14.5136V7.91362C16.361 7.1592 16.0127 6.44695 15.4168 5.98404Z"
        stroke="#D1E6FF" stroke-width="1.5" stroke-linecap="round" stroke-linejoin="round" />
</svg>