<svg width="38" height="42" viewBox="0 0 38 42" fill="none" xmlns="http://www.w3.org/2000/svg">
    <path
        d="M18.6257 2.86593L34.6087 12.3586V35.3189H29.1876C28.6087 33.1497 27.3803 31.248 25.7228 29.8356C23.8097 28.204 21.3309 27.2184 18.6257 27.2184C15.9204 27.2184 13.4417 28.204 11.5286 29.8356C9.87197 31.248 8.64271 33.1497 8.06376 35.3189H2.64269V12.3595L18.6248 2.86681L18.6257 2.86593ZM18.6257 29.8584C20.6842 29.8584 22.5637 30.6029 24.0098 31.8367C25.4822 33.0925 26.5097 34.8507 26.8234 36.8404L26.9996 37.9589H37.2523V10.6575L18.6257 -0.00817871L0 10.6575V37.9589H10.2526L10.4289 36.8404C10.7417 34.8507 11.7692 33.0925 13.2425 31.8367C14.6885 30.6038 16.5681 29.8584 18.6257 29.8584ZM18.6257 42.0087C20.8657 42.0087 22.6818 40.1959 22.6818 37.9598C22.6818 35.7237 20.8666 33.91 18.6257 33.91C16.3848 33.91 14.5705 35.7228 14.5705 37.9598C14.5705 40.1968 16.3857 42.0087 18.6257 42.0087ZM29.1876 15.641C25.6946 13.36 22.1751 12.1799 18.631 12.1527H18.6204C15.0763 12.1799 11.5577 13.36 8.06376 15.641L8.78546 18.3294C12.0934 16.0089 15.375 14.8068 18.6257 14.7813C21.8764 14.8077 25.158 16.0089 28.4659 18.3294L29.1876 15.641ZM10.339 21.9551C13.0839 20.5444 15.8447 19.8149 18.6204 19.7947H18.631C21.4067 19.8158 24.1675 20.5444 26.9124 21.9551L26.2136 24.5625C23.6679 23.1651 21.1371 22.4435 18.6257 22.4232C16.1143 22.4435 13.5844 23.1651 11.0387 24.5625L10.339 21.9551Z"
        fill="#1B85F3" />
</svg>