<svg width="18" height="18" viewBox="0 0 18 18" fill="none" xmlns="http://www.w3.org/2000/svg">
    <path
        d="M5.33317 11.2918L11.2842 5.3408M10.3712 16.3371L16.3332 10.3751M5.87034 15.7963L15.7951 5.87153M12.6665 5.33341V3.50008C12.6665 3.01385 12.4733 2.54754 12.1295 2.20372C11.7857 1.8599 11.3194 1.66675 10.8332 1.66675H3.49984C3.01361 1.66675 2.54729 1.8599 2.20347 2.20372C1.85966 2.54754 1.6665 3.01385 1.6665 3.50008V10.8334C1.6665 11.3196 1.85966 11.786 2.20347 12.1298C2.54729 12.4736 3.01361 12.6667 3.49984 12.6667H5.33317M7.1665 5.33341H14.4998C15.5124 5.33341 16.3332 6.15423 16.3332 7.16675V14.5001C16.3332 15.5126 15.5124 16.3334 14.4998 16.3334H7.1665C6.15398 16.3334 5.33317 15.5126 5.33317 14.5001V7.16675C5.33317 6.15423 6.15398 5.33341 7.1665 5.33341Z"
        stroke="#A0AEC0" stroke-width="1.5" stroke-linecap="round" stroke-linejoin="round" />
</svg>