<svg width="16" height="18" viewBox="0 0 16 18" fill="none" xmlns="http://www.w3.org/2000/svg">
    <path
        d="M1.33301 4.83333H14.6663M6.33301 8.16667V13.1667M9.66634 8.16667V13.1667M2.16634 4.83333L2.99967 14.8333C2.99967 15.2754 3.17527 15.6993 3.48783 16.0118C3.80039 16.3244 4.22431 16.5 4.66634 16.5H11.333C11.775 16.5 12.199 16.3244 12.5115 16.0118C12.8241 15.6993 12.9997 15.2754 12.9997 14.8333L13.833 4.83333M5.49967 4.83333V2.33333C5.49967 2.11232 5.58747 1.90036 5.74375 1.74408C5.90003 1.5878 6.11199 1.5 6.33301 1.5H9.66634C9.88735 1.5 10.0993 1.5878 10.2556 1.74408C10.4119 1.90036 10.4997 2.11232 10.4997 2.33333V4.83333"
        stroke="#fc5a5a" stroke-width="1.5" stroke-linecap="round" stroke-linejoin="round" />
</svg>