<svg width="22" height="22" viewBox="0 0 22 22" fill="none" xmlns="http://www.w3.org/2000/svg">
    <path
        d="M5 14.9954C5.19095 14.3701 5.58167 13.8219 6.1142 13.4323C6.64673 13.0427 8.2927 12.8324 8.95628 12.8326H12.0422C12.7066 12.8323 14.3534 13.0432 14.8863 13.4337C15.4192 13.8242 15.8098 14.3735 16 15M12.8137 8.27752C12.8137 9.53536 11.7775 10.555 10.4993 10.555C9.22103 10.555 8.18483 9.53536 8.18483 8.27752C8.18483 7.01968 9.22103 6 10.4993 6C11.7775 6 12.8137 7.01968 12.8137 8.27752Z"
        stroke="#A0AEC0" stroke-width="1.5" stroke-linecap="round" stroke-linejoin="round" />
    <path
        d="M2.94365 9.65889C1.36205 8.42218 2.50806 5.89427 4.48053 6.26877C4.77681 6.32511 5.08221 6.31069 5.37187 6.2267C5.66153 6.1427 5.92726 5.9915 6.14744 5.7854C6.36762 5.57929 6.53602 5.32411 6.63894 5.04063C6.74186 4.75714 6.77639 4.45336 6.73972 4.154C6.49634 2.16128 9.09414 1.1833 10.2254 2.8429C10.3951 3.09197 10.6212 3.29749 10.8852 3.44274C11.1493 3.58799 11.4439 3.66888 11.7451 3.67884C12.0464 3.6888 12.3457 3.62755 12.6188 3.50005C12.8919 3.37256 13.131 3.18243 13.3168 2.94511C14.5535 1.36352 17.0814 2.50953 16.7069 4.48199C16.6506 4.77828 16.665 5.08368 16.749 5.37334C16.833 5.66299 16.9842 5.92873 17.1903 6.14891C17.3964 6.36909 17.6516 6.53749 17.935 6.64041C18.2185 6.74333 18.5223 6.77785 18.8217 6.74118C20.8144 6.49781 21.7924 9.09561 20.1328 10.2269C19.8837 10.3966 19.6782 10.6226 19.5329 10.8867C19.3877 11.1508 19.3068 11.4454 19.2968 11.7466C19.2869 12.0478 19.3481 12.3471 19.4756 12.6202C19.6031 12.8933 19.7932 13.1325 20.0306 13.3183C21.6122 14.555 20.4661 17.0829 18.4937 16.7084C18.1974 16.652 17.892 16.6664 17.6023 16.7504C17.3127 16.8344 17.0469 16.9856 16.8268 17.1917C16.6066 17.3978 16.4382 17.653 16.3353 17.9365C16.2323 18.22 16.1978 18.5238 16.2345 18.8231C16.4779 20.8159 13.8801 21.7938 12.7488 20.1342C12.5791 19.8852 12.353 19.6797 12.089 19.5344C11.8249 19.3891 11.5303 19.3083 11.2291 19.2983C10.9278 19.2883 10.6285 19.3496 10.3554 19.4771C10.0824 19.6046 9.8432 19.7947 9.65742 20.032C8.42072 21.6136 5.8928 20.4676 6.2673 18.4951C6.32364 18.1989 6.30923 17.8935 6.22523 17.6038C6.14124 17.3141 5.99003 17.0484 5.78393 16.8282C5.57783 16.6081 5.32265 16.4396 5.03916 16.3367C4.75567 16.2338 4.45189 16.1993 4.15254 16.236C2.15981 16.4793 1.18184 13.8815 2.84144 12.7503C3.91549 12.0172 3.96562 10.4589 2.94365 9.65889Z"
        stroke="#A0AEC0" stroke-width="1.5" stroke-linecap="round" stroke-linejoin="round" />
</svg>