<svg width="18" height="18" viewBox="0 0 18 18" fill="none" xmlns="http://www.w3.org/2000/svg">
    <path
        d="M0.75 17.25V15.4167C0.75 14.4442 1.13631 13.5116 1.82394 12.8239C2.51158 12.1363 3.44421 11.75 4.41667 11.75H8.08333C9.05579 11.75 9.98843 12.1363 10.6761 12.8239C11.3637 13.5116 11.75 14.4442 11.75 15.4167V17.25M12.6667 0.869171C13.4554 1.07111 14.1545 1.52981 14.6537 2.17296C15.1529 2.8161 15.4239 3.6071 15.4239 4.42125C15.4239 5.23541 15.1529 6.02641 14.6537 6.66955C14.1545 7.31269 13.4554 7.7714 12.6667 7.97334M17.25 17.25V15.4167C17.2453 14.6074 16.9731 13.8224 16.4757 13.1841C15.9782 12.5457 15.2836 12.0898 14.5 11.8875M9.91667 4.41667C9.91667 6.44171 8.27504 8.08333 6.25 8.08333C4.22496 8.08333 2.58333 6.44171 2.58333 4.41667C2.58333 2.39162 4.22496 0.75 6.25 0.75C8.27504 0.75 9.91667 2.39162 9.91667 4.41667Z"
        stroke="#A0AEC0" stroke-width="1.5" stroke-linecap="round" stroke-linejoin="round" />
</svg>